<svg width="65" height="56" viewBox="0 0 65 56" fill="none" xmlns="http://www.w3.org/2000/svg">
<path d="M63.6837 26.5596L48.8305 1.13501C48.63 0.789849 48.3424 0.503366 47.9964 0.304191C47.6505 0.105016 47.2584 0.000124459 46.8592 0H17.1442C16.7454 0.000497589 16.3537 0.105566 16.0082 0.304723C15.6626 0.503879 15.3754 0.790161 15.175 1.13501L0.319695 26.5617C0.111446 26.9184 0.00170898 27.3241 0.00170898 27.7372C0.00170898 28.1503 0.111446 28.556 0.319695 28.9128L15.1772 54.3373C15.3775 54.6822 15.6648 54.9684 16.0103 55.1676C16.3558 55.3668 16.7475 55.4718 17.1464 55.4723H46.8613C47.2601 55.4718 47.6518 55.3668 47.9974 55.1676C48.3429 54.9684 48.6302 54.6822 48.8305 54.3373L63.6837 28.9085C63.892 28.5517 64.0017 28.1461 64.0017 27.733C64.0017 27.3199 63.892 26.9142 63.6837 26.5574V26.5596ZM29.6037 10.6673H34.404V34.1355H29.6037V10.6673ZM32.0017 46.9363C31.3688 46.9363 30.75 46.7486 30.2238 46.397C29.6975 46.0453 29.2873 45.5455 29.0451 44.9608C28.8029 44.376 28.7395 43.7326 28.863 43.1118C28.9865 42.491 29.2913 41.9208 29.7388 41.4732C30.1864 41.0257 30.7566 40.7209 31.3774 40.5974C31.9982 40.4739 32.6416 40.5373 33.2264 40.7795C33.8111 41.0217 34.3109 41.4319 34.6626 41.9582C35.0142 42.4844 35.2019 43.1032 35.2019 43.7361C35.2019 44.5849 34.8647 45.3988 34.2646 45.999C33.6644 46.5991 32.8505 46.9363 32.0017 46.9363Z" fill="#FFFFFF"/>
</svg>
